# xmcd
#
# Track frame offsets:
#       150
#       23310
#       48386
#       74083
#       101622
#       125160
#       148690
#       188740
#       210382
#       227876
#
# Disc length: 3415 seconds
#
# Revision: 2
# Processed by: cddbd v1.5.2PL0 Copyright (c) Steve Scherf et al.
# Submitted via: FreeDbEdit v0.1
#
DISCID=8e0d550a
DTITLE=Neil Young - My Passionate
DYEAR=2002
DGENRE=Rock
TTITLE0=When I Hold You in My Arms
TTITLE1=She's a Healer
TTITLE2=You're My Girl
TTITLE3=Differently
TTITLE4=Be With You
TTITLE5=Mr. Disappowtment
TTITLE6=Two Old Friends
TTITLE7=Gateway of Love
TTITLE8=Goin' Home
TTITLE9=Let's Roll
EXTD=
EXTT0=
EXTT1=
EXTT2=
EXTT3=
EXTT4=
EXTT5=
EXTT6=
EXTT7=
EXTT8=
EXTT9=
PLAYORDER=
